<svg viewBox="0 0 330 78">
  <path fill="#FFF" d="M322 56.1c0-1.6.1-4.7.1-7.5v-4.7c0-.4-.1-.4-1.3-.4h-2.7c-.8 0-1.2-.6-1.2-1.1 0-.6.4-1.1 1.1-1.1h10.3c.8 0 1.1.7 1.1 1.1 0 .6-.3 1.1-1 1.1h-1.9c-2 0-2 0-2 .4 0 1.4-.1 3.5-.1 5.5 0 2.5 0 5.1.1 6.7 0 .7-.6 1.1-1.2 1.1-.7 0-1.3-.4-1.3-1.1zm-21.4-.1c0 .7-.6 1.1-1.2 1.1s-1.2-.4-1.2-1.1c0-2.5.1-5.3.1-8.1 0-2 0-3.9-.1-5.6 0-.9.9-1.1 1.3-1.1.6 0 1.2.3 1.2 1 0 1.7-.1 3.7-.1 5.8-.1 2.7-.1 5.4 0 8zm-28.7-12.7c-1 0-2.1 0-2.2 1.1-.1.9-.1 3.3-.1 5.6 0 1.7 0 3.2.1 4 .1 1 .7 1.1 2.5 1.1 2.2 0 6.5 0 6.5-6 0-3.4-2-5.8-5.2-5.8h-1.6m.3 14.1c-1.6 0-4.6 0-4.8-3-.1-1-.1-2.7-.1-4.5 0-2.3.1-4.8.1-5.9.2-2.9 2.2-3 4.8-3h1.6c4.8.3 7.4 3.7 7.4 8.1-.1 8.3-6.9 8.3-9 8.3m-25.8-7.9c-.6-2-1.3-3.9-1.6-4.9-.1-.4-.2-.6-.4-.6-.1 0-.2.2-.4.6-.3.8-1.6 4.8-1.6 5 0 .1 0 .1.2.1h3.7c.1 0 .2 0 .2-.1-.1 0-.1-.1-.1-.1m3.5 7.6c-.5 0-1-.2-1.2-.8-.2-.6-.8-2.3-1.4-4.3 0-.1-.1-.2-.2-.2H242c-.1 0-.2.1-.2.2-.5 1.7-1 3.2-1.3 4.2-.2.6-.7.9-1.2.9-.6 0-1.2-.4-1.2-1.1 0-.4.1-.5 4.6-13.5.3-1 1.1-1.4 1.8-1.4.8 0 1.6.5 1.9 1.5 1.3 3.8 4 11.1 4.7 12.8.1.2.1.4.1.6-.1.7-.7 1.1-1.3 1.1m-29.2-7.9c0-3.6-2.5-6-5.5-6s-5.5 2.4-5.5 6 2.5 6 5.5 6 5.5-2.4 5.5-6m-13.4 0c0-4.7 3.4-8.2 7.9-8.2s8 3.4 8 8.2c0 4.9-3.4 8.2-8 8.2-4.5 0-7.9-3.3-7.9-8.2m-25.4-6.8c0-.8.6-1.2 1.2-1.2s1.2.4 1.2 1.3v.1c-.1 1.3-.1 5.8-.1 8.7v2.5c.1 1 .5 1 3.3 1h3c.7 0 1.1.5 1.1 1.1 0 .6-.4 1.2-1.3 1.2h-5.4c-1.9-.1-3-.8-3.1-2.7v-1.9c0-2.9.1-7.5.1-9.6v-.5zm-19.5 6.8c0-3.6-2.5-6-5.5-6s-5.5 2.4-5.5 6 2.5 6 5.5 6 5.5-2.4 5.5-6m-13.4 0c0-4.7 3.4-8.2 7.9-8.2s8 3.4 8 8.2c0 4.9-3.4 8.2-8 8.2-4.5 0-7.9-3.3-7.9-8.2m-23 6.9c0-1.6.1-4.7.1-7.5v-4.7c0-.4-.1-.4-1.3-.4h-2.7c-.8 0-1.2-.6-1.2-1.1 0-.6.4-1.1 1.1-1.1h10.3c.8 0 1.1.7 1.1 1.1 0 .6-.3 1.1-1 1.1h-1.9c-2 0-2 0-2 .4 0 1.4-.1 3.5-.1 5.5 0 2.5 0 5.1.1 6.7 0 .7-.6 1.1-1.2 1.1-.7 0-1.3-.4-1.3-1.1zm-33.7-5.3v-8.5c0-.6.4-1.1 1.2-1.1.6 0 1.2.4 1.2 1.1v8.6c0 2.8 1.9 4.2 3.7 4.2 1.9 0 3.9-1.5 3.9-4.4v-8.4c0-.9.8-1.1 1.2-1.1.6 0 1.2.4 1.2 1.1 0 1.7-.1 3.2-.1 4.5v3.7c.1 4.6-3.2 6.8-6.2 6.8-3 .1-6.1-2.1-6.1-6.5m-20.2-1.3c-.6-2-1.3-3.9-1.6-4.9-.1-.4-.2-.6-.3-.6-.1 0-.2.2-.4.6-.3.8-1.6 4.8-1.6 5 0 .1 0 .1.2.1h3.7c.1 0 .2 0 .2-.1-.2 0-.2-.1-.2-.1m3.5 7.6c-.5 0-1-.2-1.2-.8-.2-.6-.8-2.3-1.4-4.3 0-.1-.1-.2-.2-.2h-5.1c-.1 0-.2.1-.2.2-.5 1.7-1 3.2-1.3 4.2-.2.6-.7.9-1.2.9-.6 0-1.2-.4-1.2-1.1 0-.4.1-.5 4.6-13.5.3-1 1.1-1.4 1.8-1.4.8 0 1.6.5 1.9 1.5 1.3 3.8 4 11.1 4.7 12.8.1.2.1.4.1.6-.1.7-.7 1.1-1.3 1.1"/>
  <g fill="#FFF">
    <path d="M14.4 59.5c-.1-.6-.2-1.1-.2-1.7-7.8-1.7-12.6-4.9-12.6-8 0-2.5 3-5 8.1-6.7l-1.4 1.2c-.3.4-.3.9-.1 1.2.2.2.4.3.6.3.2 0 .4-.1.5-.2l5.3-4.7-6.9-1.5c-.4-.1-.9.2-1 .6-.1.4.2.9.6 1l2.1.5c-6.1 2-9.6 5-9.6 8.4.2 4.3 6 7.9 14.6 9.6M38 41.2c-.1.4.2.9.6 1 7.1 1.7 11.5 4.6 11.5 7.7 0 4.4-9.8 9.1-24.3 9.1-2.4 0-4.6-.1-6.7-.4.1.6.2 1.1.3 1.7 2 .2 4.2.3 6.4.3 14.5 0 25.9-4.7 25.9-10.7 0-3.9-4.8-7.4-12.8-9.3h-.2c-.2-.1-.6.2-.7.6"/>
    <path d="M34.4 62.3h-.2c-.4 0-.7.3-.8.6-1.7 7.2-4.5 11.7-7.5 11.7-4.3 0-8.9-10-8.9-24.8S21.6 25 25.9 25c4.3 0 8.9 10 8.9 24.8v1.5l-.8-1.9c-.2-.4-.7-.6-1.1-.4-.4.2-.6.7-.4 1.1l2.9 6.6 3.4-6.3c.2-.4.1-.9-.3-1.1-.4-.2-.9-.1-1.1.3l-1 1.8v-1.5c0-14.8-4.6-26.5-10.5-26.5S15.4 35 15.4 49.9c0 14.8 4.6 26.5 10.5 26.5 3.8 0 7.2-4.9 9.1-13 .1-.5-.2-1-.6-1.1"/>
  </g>
  <path d="M180.6 15.7h-3.1V.3h3.1v15.4zm24.1 0h-3.1V4.1l-3.8 10.1h-3.2l-3.8-10.1v11.5h-3.1V.3h4.5l4 10.4 4-10.4h4.5v15.4zm21.3 0h-3.3l-1.3-3.6h-6.6l-1.3 3.6h-3.2l6-15.4h3.7l6 15.4zm-10.1-6.4h4.5l-2.2-6-2.3 6zm28.2-6.9l-2.2 2.2c-.9-1-2.1-1.6-3.7-1.6-2.8 0-4.9 2.1-4.9 5.1 0 3.1 2.1 5.1 4.8 5.1 2.5 0 4-1.2 4.4-3.4h-3.9V7.1h7.1V8c0 4.7-3.2 8-7.5 8s-8.1-3-8.1-8c0-4.7 3.4-8 8.1-8 2.5 0 4.6.9 5.9 2.4zm19.5 13.3h-11.5V.3h11.4v2.8h-8.4v3.4h8v2.8h-8v3.5h8.4v2.9zm17.2-11.5c-1.2-.7-2.7-1.3-4.4-1.3-1.7 0-2.9.7-2.9 1.8s1.3 1.5 3.2 1.8l.9.1c2.8.5 4.9 1.6 4.9 4.3 0 3.4-3 5-6.3 5-2.3 0-4.8-.7-6.5-2l1.6-2.5c1.1.9 2.9 1.7 4.9 1.7 1.7 0 3-.7 3-1.9 0-1.1-1.1-1.5-3.3-1.8l-1-.2c-2.7-.4-4.7-1.6-4.7-4.4 0-3.2 2.9-4.9 6.1-4.9 2.2 0 3.9.5 5.9 1.6l-1.4 2.7zM304.1.3c3.6 0 5.8 1.3 5.8 4.3 0 1.6-.9 2.8-2.2 3.3 1.4.5 2.6 1.8 2.6 3.5 0 3-2.1 4.4-5.8 4.4h-6.7V.3h6.3zM300.9 3v3.6h3.1c1.5 0 2.7-.3 2.7-1.8S305.5 3 304 3h-3.1zm0 6.3V13h3.4c1.7 0 2.8-.4 2.8-1.9 0-1.4-1.1-1.8-2.8-1.8h-3.4zm22.5.3v6.1h-3.1V9.6L314.4.3h3.6l3.9 6.5 3.9-6.5h3.5l-5.9 9.3z" opacity=".5" fill="#FFF"/>
</svg>
