<svg viewBox="0 0 164 13">
  <path d="M71.7 9.8c-.7 0-1.3.6-1.3 1.3s.6 1.3 1.3 1.3c.7 0 1.3-.6 1.3-1.3s-.6-1.3-1.3-1.3zM7 8.4L5.3 4.7 3.7 8.4c.5.2 1.1.3 1.7.3s1.1-.1 1.6-.3zm2.3.8l1.3 3h-2l-1-2.2c-.8.3-1.6.4-2.4.4-.8 0-1.7-.2-2.4-.4l-1 2.2H0l1.3-3 .8-1.7L5.3.2l3.2 7.3.8 1.7zm55.4-2.9c0-2.3-1.9-4.2-4.2-4.2S56.3 4 56.3 6.3c0 2.3 1.9 4.2 4.2 4.2s4.2-1.9 4.2-4.2zm1.8 0c0 3.4-2.7 6.1-6 6.1s-6-2.7-6-6.1 2.7-6.1 6-6.1 6 2.7 6 6.1zM38.2 2.2h3.2v10h1.9v-10h3.2V.3h-8.3v1.9zM26.6.3h1.9v6.5c0 3.4-1.3 5.6-4.6 5.6s-4.6-2.1-4.6-5.5V.3h1.9v7.4c0 1.8 1 2.9 2.7 2.9s2.7-1.1 2.7-2.8V.3zm96.2 5.1V2.3h1.8c1 0 1.9.3 1.9 1.6 0 1.2-1 1.5-1.9 1.5h-1.8zm5.7-1.6c0-2.2-1.6-3.3-3.9-3.3h-3.7v11.9h1.9V7.2h.7l3.5 5.2h2.3L125.6 7c2-.3 2.9-1.6 2.9-3.2zm12.1 2.3V.5h-1.9v11.9h1.9V6.1zm6.1-5.6h-2.2l-3.9 5.6v.1l4.2 6.2h2.4L142.9 6zm14.2 4.9c-1.4-.6-2.4-.9-2.4-2 0-.8.7-1.3 1.5-1.3.9 0 1.4.3 2 1l1.4-1.2c-.6-.9-1.7-1.7-3.3-1.7-2 0-3.5 1.3-3.5 3.3 0 1.8 1.3 2.7 3.2 3.4 1.2.5 2.2 1 2.2 2 0 1.1-.8 1.7-1.8 1.7-1.3 0-2.1-.9-2.4-1.9l-1.6 1c.4 1.2 1.6 2.8 4.1 2.8 2.2 0 3.8-1.4 3.8-3.6-.2-1.8-1.5-2.8-3.2-3.5m-55.3 5.2c-2.3 0-4.2-1.9-4.2-4.2s1.9-4.2 4.2-4.2c2.3 0 4.2 1.9 4.2 4.2s-2 4.2-4.2 4.2m0-10.3c-3.3 0-6 2.7-6 6.1s2.7 6.1 6 6.1 6-2.7 6-6.1-2.7-6.1-6-6.1M82.8.5l-3.3 7.6L76.2.5h-2.1l5.4 12.1 4.4-9.8zm3.3 7.6l-1.3-3.2-1.1 2.4 2.4 5.3L91.5.5h-2z"/>
</svg>
