<svg viewBox="0 0 50 70">
  <path opacity=".3" fill="#3B3C41" d="M18.6 69v-2.6c0-3.1-7.1-9.4-9.3-11.2-1.2-1.2-3-3.7-3.7-5.4L1.2 38c-.1-.3-.4-.8.1-1.1.9-.4 1.8-.7 2.8-.7 2.3 0 4.5 1.3 5.8 3.4l3.2 5c.2.3.5.5.8.5h.3c.4-.1.7-.5.7-1V10.7C15 9.2 16.2 8 17.6 8c1.5 0 2.7 1.2 2.9 2.8l1 15.4.1 1.3c0 .5.5.9 1 .9s1-.5 1-1v-1.2c0-1.1.9-2 2.1-2 2.8 0 5.1 2.3 5.1 5 0 .6.4 1 1 1s1-.4 1-1V28c0-1.1.9-2 2.1-2 2.8 0 5.1 2.3 5.1 5 0 .6.4 1 1 1s1-.4 1-1v-1.2c0-1.1.9-2 2.1-2 1.4 0 2.7.5 3.7 1.5.9.9 1.4 2.2 1.4 3.5v14.8c0 1.9-.8 4.9-1.7 6.3-.6.9-5.6 9.2-5.6 12.3V69H18.6z"/>
  <path fill="#FFF" d="M17.6 9c1 0 1.8.8 1.9 1.8l1 15.4.1 1.3c.1 1.1.9 1.9 2 1.9h.1c1.1 0 1.9-.9 1.9-2v-1.2c0-.5.5-1 1.1-1 2.3 0 4.1 1.8 4.1 4 0 1.1.9 2 2 2s2-.9 2-2V28c0-.5.5-1 1.1-1 2.3 0 4.1 1.8 4.1 4 0 1.1.9 2 2 2s2-.9 2-2v-1.2c0-.5.5-1 1.1-1 1.1 0 2.2.4 3 1.2.7.7 1.1 1.7 1.1 2.8v14.9c0 1.7-.7 4.5-1.5 5.8-1.3 2.2-5.7 9.6-5.7 12.8V68H19.6v-1.6c0-3.3-6-8.9-9.6-11.9-1.1-1.1-2.8-3.5-3.4-5.1L2.1 37.6c.6-.3 1.3-.4 2-.4 1.9 0 3.8 1.1 5 2.9l3.2 5c.4.6 1 .9 1.7.9.2 0 .4 0 .6-.1.9-.3 1.4-1 1.4-1.9V10.7c0-.9.7-1.7 1.6-1.7m0-2c-2 0-3.6 1.7-3.6 3.7v33.4l-3.2-5c-1.5-2.4-4-3.8-6.7-3.8-1.1 0-2.2.2-3.2.8-.9.5-1.1 1.4-.6 2.3l4.5 11.8c.6 1.8 2.4 4.4 3.8 5.8 0 0 8.9 7.6 8.9 10.4V70h25.2v-3.6c0-2.9 5.4-11.8 5.4-11.8 1.1-1.7 1.8-4.9 1.8-6.8V33c.1-3.3-2.6-6-6-6-1.7 0-3.1 1.4-3.1 3v1.2c0-3.3-2.7-6-6.1-6-1.7 0-3.1 1.4-3.1 3v1.2c0-3.3-2.7-6-6.1-6-1.7 0-3.1 1.4-3.1 3v1.2l-.1-1.3-1-15.4c0-2.3-1.7-3.9-3.7-3.9z"/>
  <path fill="#FFF" d="M25.6 21.6c-.2 0-.5-.1-.7-.3-.4-.4-.4-1 0-1.4 4-4.1 4-10.8 0-14.9-1.9-1.9-4.5-3-7.2-3s-5.3 1.1-7.2 3c-4 4.1-4 10.8 0 14.9.4.4.4 1 0 1.4-.4.4-1 .4-1.4 0-4.7-4.9-4.7-12.8 0-17.6C11.4 1.3 14.4 0 17.7 0s6.3 1.3 8.6 3.7c4.7 4.9 4.7 12.8 0 17.6-.2.2-.4.3-.7.3z"/>
</svg>
